<svg height="512" viewBox="0 0 60 60" width="512" xmlns="http://www.w3.org/2000/svg"><g id="Page-1" fill="none" fill-rule="evenodd"><g id="006---Degree" fill-rule="nonzero"><path id="Shape" d="m58.7 17.52c-.0791574.6323419-.2794794 1.2434938-.59 1.8-.3511915.5511928-.8188072 1.0188085-1.37 1.37-.13.09-.27.18-.4.27s-.25.18-.38.27c-.1291431.114388-.2699109.2149364-.42.3-7.25 5.13-31.78 23.33-35.07 36.63-.24.99-4.07 1.19-8.33-.84-4.26-2.04-8.96-6.33-10.9-14.3 2.1-1.21 2.62-4.41 2.18-6.92-.06512589-.4284999.12156258-.8563277.48-1.1 4.08312715-2.6301478 8.0221273-5.4775776 11.8-8.53 2.9-2.41 5.72-4.96 8.37-7.63 4.8144976-4.7236876 9.0661171-9.98871599 12.67-15.69 1.25-2.05 3.17-2.15 5.32-1.98.9871548.07231815 1.9650233.23976139 2.92.5 1.3901352.36402461 2.7277487.90511953 3.98 1.61 1.4979217.87886668 2.8932042 1.92197457 4.16 3.11 2.96 2.65 6.15 6.93 5.58 11.13z" fill="#cad9fc"/><path id="Shape" d="m55.7 16.41c-.080682.631999-.2809112 1.2428677-.59 1.8-.3487392.5504646-.8169954 1.0153028-1.37 1.36-.13.1-.27.19-.4.28s-.25.18-.38.27c-.1316613.1111877-.2721215.2115164-.42.3-7.25 5.13-31.78 23.33-35.07 36.63-.18.75-2.41 1.05-5.33.27-4.26-2.04-8.96-6.33-10.9-14.3 2.1-1.21 2.62-4.41 2.18-6.92-.06512589-.4284999.12156258-.8563277.48-1.1 4.08312715-2.6301478 8.0221273-5.4775776 11.8-8.53 2.9-2.41 5.72-4.96 8.37-7.63 4.8144976-4.7236876 9.0661171-9.98871599 12.67-15.69 1.25-2.05 3.17-2.15 5.32-1.98.9871548.07231815 1.9650233.23976139 2.92.5.33.15.66.32.98.5 1.4979217.87886668 2.8932042 1.92197457 4.16 3.11 2.96 2.65 6.15 6.93 5.58 11.13z" fill="#e8edfc"/><path id="Shape" d="m26.7872 39.3723-5.64 5.9325c-.2873652.3059201-.7204394.4276738-1.1251181.3163138-.4046786-.11136-.7144893-.4375418-.8048819-.8474138l-.28-1.1928c-.1027299-.4432826-.4597075-.782718-.9076-.863l-1.2054-.2192c-.413934-.0695449-.755369-.3624941-.8870122-.7610514s-.0318654-.8372388.2592122-1.1396486l5.4912-5.7757" fill="#e8edfc"/><path id="Shape" d="m58.7 17.52c-.0761447.6337079-.2766444 1.2461497-.59 1.8022-.3487903.5522847-.8177864 1.0186829-1.372 1.3644-.1328.0925333-.2654667.1852-.398.278-.126.0883333-.2519.1768667-.3777.2656-.1307561.1134386-.2722201.2139102-.4224.3-.849059.3558019-1.77641.4833558-2.69.37-2.99-.34-5.53-2.54-7.42-4.69-1.5930153-1.7887113-2.8833198-3.8255009-3.82-6.03-.5236668-.9974551-.7063058-2.13894931-.52-3.25.0867052-.37167558.265527-.71556368.52-1-3.78 4.14-7.25 8.53-11.08 12.64-.66.71-1.33 1.41-2.01 2.11l-9.98 9.4c-.18.17-.39.34-.58.51-5.1301073 4.4208975-10.7382121 8.2546236-16.7199 11.4298 2.1-1.21 2.62-4.41 2.18-6.92-.06512589-.4284999.12156258-.8563277.48-1.1 4.08312715-2.6301478 8.0221273-5.4775776 11.8-8.53 2.9-2.41 5.72-4.96 8.37-7.63 4.8144976-4.7236876 9.0661171-9.98871599 12.67-15.69 1.25-2.05 3.17-2.15 5.32-1.98 2.4264649.19113449 4.781634.91133836 6.9 2.11 1.4979217.87886668 2.8932042 1.92197457 4.16 3.11 2.96 2.65 6.15 6.93 5.58 11.13z" fill="#a4c2f7"/><path id="Shape" d="m58.7 17.52c-.0791574.6323419-.2794794 1.2434938-.59 1.8-.3511915.5511928-.8188072 1.0188085-1.37 1.37-.13.09-.27.18-.4.27s-.25.18-.38.27c-.1291431.114388-.2699109.2149364-.42.3-.849059.3558019-1.77641.4833558-2.69.37-.3033819-.0321544-.6041249-.0856198-.9-.16.2002491-.0594952.3971937-.1295942.59-.21.1500891-.0850636.2908569-.185612.42-.3.13-.09.25-.18.38-.27s.27-.18.4-.27c.5511928-.3511915 1.0188085-.8188072 1.37-1.37.3105206-.5565062.5108426-1.1676581.59-1.8.57-4.2-2.62-8.48-5.58-11.13-1.2667958-1.18802543-2.6620783-2.23113332-4.16-3.11-1.9763454-1.11907632-4.1615082-1.82023449-6.42-2.06.83454-.12275411 1.6812475-.13955386 2.52-.05 2.4264649.19113449 4.781634.91133836 6.9 2.11 1.4979217.87886668 2.8932042 1.92197457 4.16 3.11 2.96 2.65 6.15 6.93 5.58 11.13z" fill="#7facfa"/><path id="Shape" d="m41.22 32.64c-3.5486095 2.9782699-6.9367048 6.1427175-10.15 9.48-3.337538-1.8231146-6.3761109-4.1467291-9.01-6.89-.03-.02-.05-.05-.08-.07-1.2276441-1.2891668-2.3637422-2.6625088-3.4-4.11-.0055228 0-.01-.0044772-.01-.01-1.0588595-1.4591884-2.0049342-2.9969776-2.83-4.6 2.89-2.4 5.69-4.94 8.33-7.6.33-.33.67-.67.99-1.01.18-.18.35-.36.52-.54.32.54.64 1.07.98 1.59.62.96 1.27 1.9 1.96 2.8.9768038 1.2779634 2.0286562 2.4967765 3.15 3.65 2.0560617 2.1203507 4.3360646 4.011412 6.8 5.64.89.59 1.81 1.15 2.75 1.67z" fill="#cad9fc"/><path id="Shape" d="m38.47 30.97c-3.3577982 2.8448316-6.5686188 5.8587308-9.62 9.03-2.4327434-1.3340462-4.7100015-2.9338284-6.79-4.77-.03-.02-.05-.05-.08-.07-1.2276441-1.2891668-2.3637422-2.6625088-3.4-4.11-.0026522 0-.0051957-.0010536-.0070711-.0029289-.0018753-.0018754-.0029289-.0044189-.0029289-.0070711-1.0588595-1.4591884-2.0049342-2.9969776-2.83-4.6 2.89-2.4 5.69-4.94 8.33-7.6.33-.33.67-.67.99-1.01.39.59.81 1.17 1.24 1.73 1.6021868 2.0899383 3.400354 4.0220472 5.37 5.77 2.0560617 2.1203507 4.3360646 4.011412 6.8 5.64z" fill="#e8edfc"/><path id="Shape" d="m12.9 57.4359c3.1585 1.5051 6.0769 1.7827 7.4746 1.423-1.5516049-.2591708-3.0583114-.7383295-4.4746-1.423-4.26-2.04-8.96-6.33-10.9-14.3 2.1-1.21 2.62-4.41 2.18-6.92-.06512589-.4284999.12156258-.8563277.48-1.1 4.0831271-2.6301478 8.0221273-5.4775776 11.8-8.53 2.9-2.41 5.72-4.96 8.37-7.63.3669-.3662.7254-.7393 1.0866-1.11.1438-.1466667.2849333-.2933333.4234-.44l.0027.0043c4.2076895-4.3079385 7.9476199-9.04911217 11.1573-14.1443.5904-1.03382226 1.6204993-1.74152065 2.7973-1.9218-.1592-.0166-.3179-.0468-.4773-.0582-.2374667-.01866667-.4717667-.03276667-.7029-.0423-.1125-.0047-.2222-.0044-.3329-.0063-.1184-.0019-.2368-.0035-.353-.0014-.1271.002-.2519.0089-.3763.0164-.1012.0063-.2014.0151-.3007.0253-.1214.0125-.2421.0269-.36.0463-.0308.005-.0632.0065-.0938.012l.0207.0032c-1.1863103.17509266-2.2264181.88548214-2.8211 1.9268-3.2096917 5.09511813-6.9496217 9.8362243-11.1573 14.1441l-.0027-.0043c-.1385333.1466667-.2796667.2933333-.4234.44-.3612.371-.72.7441-1.0866 1.11-2.65 2.67-5.47 5.22-8.37 7.63-3.7778727 3.0524224-7.71687285 5.8998522-11.8 8.53-.35843742.2436723-.54512589.6715001-.48 1.1.44 2.51-.08 5.71-2.18 6.92 1.94 7.9702 6.64 12.2602 10.9 14.3002z" fill="#fff"/><path id="Shape" d="m1.2305 44.0166c-.45412163.0000673-.85127207-.3058712-.96708337-.7449773-.11581131-.4391062.07879755-.9011173.47388337-1.1250227 1.6328-.9243 2.09-3.6519 1.6973-5.8687-.12910977-.8162423.22180451-1.6341219.9023-2.103l1.8457-1.2485c3.42094913-2.2245109 6.716341-4.6363888 9.8711-7.2246 2.9551-2.4517 5.751-4.9952 8.3135-7.5635 4.754928-4.673907 8.9554635-9.88014167 12.5185-15.5157 1.7256-2.8135 4.6651-2.5767 6.252-2.4483 2.5703503.20470523 5.0650602.96789535 7.31 2.2363 1.5620762.91455641 3.0173588 2.00035842 4.3389 3.2373 1.5723 1.4043 6.6592 6.4292 5.9092 12.0015-.1671775 1.2475806-.7247046 2.4103088-1.5928 3.3218-.5622679.5954021-1.2384089 1.0717919-1.9883 1.4009-1.0558672.4778049-2.2219084.6590892-3.373.5244-2.7119-.3067-5.35-1.9512-8.0664-5.0278-1.662755-1.8679396-3.0098573-3.9944651-3.9883-6.2959-.6108715-1.2009089-.8111005-2.56899951-.57-3.8946.1287664-.52411392.3838545-1.00874683.743-1.4116.0136-.0156.0976-.105.1123-.1191 1.1958675-.98404045 2.8129984-1.28566678 4.2832-.7989 2.3327252.65472345 4.4445838 1.92899872 6.1113 3.6875.6851067.65973489 1.2783287 1.4086538 1.7637 2.2266.6485324 1.0251442.7529081 2.3032143.2793 3.42-.5359286 1.1279912-1.8061133 1.7063457-3.0088 1.37-2.178855-.6967636-3.9380688-2.3213742-4.8057-4.438-.2302751-.5021373-.0098873-1.0958749.49225-1.32615s1.0958749-.0098873 1.32615.49225c.6314499 1.5691557 1.9116683 2.7878434 3.51 3.3413.266272.077046.5498422-.0450886.6768-.2915.1746048-.5353346.0954821-1.1210778-.2149-1.5909-.4004329-.6622012-.8864948-1.2686689-1.4456-1.8037-1.4087765-1.49527672-3.1948666-2.58278792-5.17-3.1479-.7959763-.28708068-1.6805956-.18338254-2.3886.28-.1580728.16898837-.2700556.37577093-.3252.6005-.116022.90037076.0483416 1.81461928.4707 2.6182.8940624 2.1029574 2.12486 4.0461584 3.644 5.7532 2.3779 2.6934 4.5986 4.1211 6.7949 4.3692.7947381.0915696 1.5994533-.0332613 2.3291-.3613.5023608-.2187638.9564276-.5348433 1.336-.93.5897139-.6119841.9693371-1.3957823 1.0839-2.2379.6172-4.5938-3.873-9.002-5.2636-10.2437-1.2120768-1.13808297-2.5469454-2.13785931-3.98-2.9809-1.9925964-1.12746962-4.2075561-1.80576646-6.4898-1.9874-2.1513-.1724-3.4794.0156-4.3925 1.5034-3.6448566 5.76761173-7.9420908 11.0960788-12.8067 15.88-2.6064 2.6113-5.4492 5.1977-8.4482 7.6865-3.2061829 2.631644-6.55535655 5.0840835-10.0322 7.3461l-1.835 1.2417c-.04085985.0262167-.06411057.0726798-.0606.1211.24666783 1.3954752.20412231 2.8267406-.125 4.2051 4.61524284-2.7126617 8.9772371-5.8347977 13.0333-9.3287l.1777-.1523c.1191-.1021.2412-.2046.3516-.311.3985563-.3823743 1.0316257-.3692563 1.414.0293s.3692563 1.0316257-.0293 1.414c-.1387.1328-.289.2617-.4385.3892l-.17.1465c-5.1910171 4.4699614-10.86478147 8.3464976-16.9159 11.5576-.1453971.0788606-.30819351.120144-.4736.1201z" fill="#428dff"/><path id="Shape" d="m28.52 22.68c-.4019603.0000083-.7648573-.2406602-.9212386-.6109532-.1563814-.3702931-.0758483-.7982299.2044386-1.0863468.6748-.6948 1.34-1.39 1.9952-2.0942 2.0292-2.1773 3.9951-4.4785 5.8955-6.7046 1.6738-1.959 3.4033-3.9849 5.1787-5.9282.0088-.01.0195-.0215.0322-.0342.0275699-.03424174.0569099-.06701974.0879-.0982.3937338-.39760604 1.0306968-.41479386 1.4453-.039.1917804.17386997.305071.41792489.3140932.67663143.0090223.25870654-.0869913.51006082-.2661932.69686857l-.02.0195c-.0352577.04523467-.0744797.08723441-.1172.1255-1.7793 1.9522-3.4843 3.9488-5.1338 5.88-1.915 2.2417-3.8955 4.56-5.9531 6.7681-.664.7148-1.3388 1.42-2.0254 2.1259-.1877332.1941361-.4463399.3035855-.7164.3032z" fill="#428dff"/><path id="Shape" d="m2.2067 42.7813c.90770577 4.0668009 2.99613705 7.7749988 6.0033 10.6594 1.67015717 1.5498799 3.6262123 2.759605 5.7589 3.5616 1.049383.3972355 2.1415893.6704884 3.2544.8142.5278636.0662168 1.0608228.082155 1.5917.0476.2212321-.0162878.440045-.0565231.6526-.12.0571465-.0164549.1125704-.0383901.1655-.0655-.0016-.0312.0361.078.08.1219.0454551.0585338.0993809.1099655.16.1526l.0487.032c-.6633-.51-.1855-.14-.3343-.2533l-.0028.0026-.0054.0054-.0106.0113c-.0421372.0477525-.0668169.1083941-.07.172l1.9414.4809c-.0661271.2153879-.1711988.4168205-.31.5943-.1135357.1256452-.2401523.238819-.3777.3376-.2024052.1305915-.4215184.2332524-.6514.3052-.3611911.1138016-.7342169.1859038-1.1118.2149-.66737.0469488-1.3377239.0288972-2.0016-.0539-1.2709844-.1622855-2.5185435-.4731097-3.7171-.9261-2.3759693-.8925241-4.55532297-2.2393397-6.4163-3.9652-3.29640907-3.1511708-5.58901935-7.2054971-6.5903-11.6545z" fill="#fff"/><g fill="#428dff"><path id="Shape" d="m2.8833 47.7305c.48696348-.2291315.71339368-.7961683.5182-1.2977-.48645135-1.1865224-.88577587-2.406922-1.1948-3.6515l-1.9428.475c.33346338 1.344497.76488245 2.662785 1.2908 3.9443.09999414.2513881.29899559.4505739.550291.5508008.25129542.1002269.5327549.0926686.778309-.0209008z"/><path id="Shape" d="m21.44 58.4045-1.9414-.4809c.0031831-.0636059.0278628-.1242475.07-.172l.0106-.0113.0054-.0054c.15.1124-.3271-.2589.3371.2507l-.0487-.032c-.0606191-.0426345-.1145449-.0940662-.16-.1526-.044-.0439-.0817-.1531-.08-.1219-.0529296.0271099-.1083535.0490451-.1655.0655-.212555.0634769-.4313679.1037122-.6526.12-.5308772.034555-1.0638364.0186168-1.5917-.0476-1.1128107-.1437116-2.205017-.4169645-3.2544-.8142-2.1326924-.8021559-4.08871548-2.0120521-5.7588-3.5621-.2411-.2044-.4527-.4407-.679-.6607-.38509737-.3725175-.99155405-.3873484-1.3944-.0341-.20295666.1804471-.32199168.4369817-.32873914.7084721s.09939696.5336215.29313914.7239279c.25.2452.4866.5052.7536.7334 1.86097703 1.7258603 4.0403307 3.0726759 6.4163 3.9652 1.1985565.4529903 2.4461156.7638145 3.7171.9261.6638761.0827972 1.33423.1008488 2.0016.0539.3775831-.0289962.7506089-.1010984 1.1118-.2149.2298816-.0719476.4489948-.1746085.6514-.3052.1375477-.098781.2641643-.2119548.3777-.3376.1386669-.1776381.2435697-.3792075.3095-.5947z"/><path id="Shape" d="m5.1659 49.8146c-.13894551-.2144423-.35507912-.3671968-.6036-.4266l-.19-.0224c-.06765091-.00305-.13541674.0024264-.2017.0163-.06378433.0046136-.12656683.0184231-.1864.041-.06281242.0236765-.12395189.0515735-.183.0835-.22771286.1350059-.39208448.355356-.4566.6121-.0259549.1324067-.0259549.2685933 0 .401.0700458.4145478.38651912.7440703.7979.8308.13063566.0218624.26432468.0173744.3932-.0132.12785244-.0271565.24888353-.0799163.3558-.1551.21118833-.1577536.35881985-.3859953.4161-.6433.0409333-.2505464-.00934337-.5074649-.1417-.7241z"/><path id="Shape" d="m20.4707 59.1641c-.3076393.0002852-.5982883-.1410457-.7880423-.3831934-.1897539-.2421476-.2574913-.5581586-.1836577-.8568066 3.9219-15.833 36.1328-37.7055 37.502-38.6289.4578164-.3090033 1.0794466-.1883664 1.3884499.26945.3090033.4578165.1883665 1.0794467-.2694499 1.38845-.3291.2217-32.9424 22.3628-36.68 37.4512-.1106259.4455839-.5101899.758788-.9693.7598z"/><path id="Shape" d="m31.1 43.1382c-.1672887.0001547-.3318968-.0420208-.4785-.1226-5.0845618-2.7880071-9.4796906-6.6800417-12.8623-11.39-1.0854483-1.5053067-2.0592184-3.0880717-2.9135-4.7356-.2548242-.4902632-.0639632-1.0942758.4263-1.3491s1.0942758-.0639632 1.3491.4263c.8089756 1.5622881 1.731695 3.0629981 2.7607 4.49 3.2077356 4.467393 7.3759611 8.159038 12.1982 10.8035.4010555.2191872.6024684.6823913.4892622 1.1251925-.1132061.4428013-.512219.7525011-.9692622.7523075z"/><path id="Shape" d="m41.2188 33.64c-.1691475.0001674-.3355364-.0428583-.4834-.125-5.0676575-2.8005605-9.4979955-6.6237277-13.01-11.227-.666-.87-1.3223-1.8071-2.0059-2.8657-.3447-.5274-.6718-1.0694-1-1.6221-.2817205-.475103-.124953-1.0886295.35015-1.37035s1.0886295-.124953 1.37035.35015c.3125.5273.6241 1.0449.9561 1.5532.6572 1.0171 1.2832 1.9121 1.917 2.7393 3.3450451 4.3840631 7.5645669 8.0252267 12.391 10.6926.399191.220865.5982913.6839065.4839769 1.1255704s-.5130593.7499672-.9692769.7494296z"/><path id="Shape" d="m20.3213 46.6611c-.1960788-.0000655-.391225-.0269822-.58-.08-.7586418-.2117708-1.337143-.8269796-1.5019-1.5972l-.2754-1.1748c-.0123228-.0527842-.0536583-.0939258-.1065-.106l-1.2119-.2207c-.7708232-.1297137-1.4069039-.6746893-1.6533-1.4165-.253332-.7523082-.0686757-1.58305.4795-2.1572l5.4912-5.7754c.2444384-.266213.6134993-.3798168.9653304-.2971467s.6316777.3487483.7319779.6959649.0054445.7215348-.2481083.9790818l-5.4912 5.7759c-.038552.0362475-.0512861.0922456-.0322.1416.0118693.0450635.050358.0780993.0967.083l1.2226.2222c.8412517.1545121 1.510832.7931071 1.705 1.6261l.2773 1.185c.003478.0523714.0400366.0966605.0908.11.0502923.0158222.1051841.0004917.14-.0391l5.6416-5.9331c.2444384-.266213.6134993-.3798168.9653304-.2971467s.6316777.3487483.7319779.6959649.0054445.7215348-.2481083.9790818l-5.6406 5.9327c-.4029576.4261714-.9635875.6676608-1.5501.6677z"/></g></g></g></svg>