<svg height="512pt" viewBox="0 0 512 512" width="512pt" xmlns="http://www.w3.org/2000/svg"><path d="m512 256c0 57.828125-19.179688 111.179688-51.519531 154.039062-5.359375 7.101563-11.082031 13.921876-17.128907 20.421876-4.839843 5.1875-9.902343 10.1875-15.152343 14.980468-45.46875 41.339844-105.890625 66.558594-172.199219 66.558594-.898438 0-1.800781 0-2.699219-.019531-5.089843-.050781-10.140625-.25-15.160156-.601563-5.769531-.390625-11.480469-.980468-17.128906-1.75-124.832031-17.070312-221.011719-124.117187-221.011719-253.628906 0-141.378906 114.621094-256 256-256s256 114.621094 256 256zm0 0" fill="#65b2ff"/><path d="m512 256c0 26.050781-3.890625 51.191406-11.128906 74.871094-32.011719 104.847656-129.542969 181.128906-244.871094 181.128906-104.558594 0-194.488281-62.699219-234.230469-152.550781-14-31.628907-21.769531-66.628907-21.769531-103.449219 0-46.21875 12.25-89.570312 33.679688-127 44.121093 77.070312 127.160156 129 222.320312 129s178.210938-51.929688 222.320312-129c21.429688 37.429688 33.679688 80.78125 33.679688 127zm0 0" fill="#0f9be8"/><path d="m442.035156 165.710938v224.796874c0 9.042969-7.335937 16.378907-16.390625 16.378907h-353.195312c-9.054688 0-16.386719-7.335938-16.386719-16.378907v-224.796874c0-9.042969 7.332031-16.375 16.386719-16.375h353.195312c9.054688 0 16.390625 7.332031 16.390625 16.375zm0 0" fill="#fff"/><path d="m442.035156 161.632812v39.980469h-385.972656v-39.980469c0-6.792968 7.332031-12.296874 16.386719-12.296874h353.195312c9.054688 0 16.390625 5.503906 16.390625 12.296874zm0 0" fill="#f8c706"/><path d="m95.539062 175.027344c0 6.679687-5.417968 12.09375-12.097656 12.09375-6.679687 0-12.09375-5.414063-12.09375-12.09375 0-6.679688 5.414063-12.097656 12.09375-12.097656 6.679688 0 12.097656 5.417968 12.097656 12.097656zm0 0" fill="#fff"/><path d="m134.9375 175.027344c0 6.679687-5.417969 12.09375-12.097656 12.09375-6.679688 0-12.097656-5.414063-12.097656-12.09375 0-6.679688 5.417968-12.097656 12.097656-12.097656 6.679687 0 12.097656 5.417968 12.097656 12.097656zm0 0" fill="#fff"/><path d="m174.332031 175.027344c0 6.679687-5.414062 12.09375-12.09375 12.09375-6.683593 0-12.097656-5.414063-12.097656-12.09375 0-6.679688 5.414063-12.097656 12.097656-12.097656 6.679688 0 12.09375 5.417968 12.09375 12.097656zm0 0" fill="#fff"/><g fill="#323b5a"><path d="m185 266.320312v90.609376h-90.609375v-90.609376zm15-15h-120.609375v120.609376h120.609375zm0 0"/><path d="m122.589844 314.023438h-17.105469v34.210937h34.210937v-17.105469h-17.105468zm0 0"/><path d="m156.796875 279.816406h-17.101563v17.101563h-17.105468v17.105469h17.105468v17.105468h17.101563v17.105469h17.105469v-68.417969zm0 0"/><path d="m105.484375 279.816406h17.105469v17.101563h-17.105469zm0 0"/><path d="m131.570312 241.605469-1.371093-2.4375c-.234375-.417969-.765625-.546875-1.167969-.300781-.898438.535156-1.800781.867187-2.417969.867187-.007812 0-.007812 0-.015625 0-.832031-.007813-1.046875-1.148437-.335937-1.570313 2.96875-1.738281 4.820312-4.835937 4.820312-8.566406 0-5.816406-4.554687-10.035156-10.816406-10.035156-6.257813 0-10.8125 4.183594-10.8125 10.035156 0 5.445313 3.945313 9.53125 9.519531 10.070313.308594.023437.574219.222656.695313.515625 1.121093 2.589844 3.4375 4.242187 6.242187 4.242187 1.800782 0 3.902344-.667969 5.414063-1.722656.347656-.25.453125-.71875.246093-1.097656zm-11.21875-7.289063c-2.246093 0-4.210937-2-4.210937-4.691406 0-2.703125 1.9375-4.640625 4.210937-4.640625 2.246094 0 4.039063 1.9375 4.039063 4.640625 0 2.691406-1.792969 4.691406-4.039063 4.691406zm0 0"/><path d="m150.851562 238.183594-2.710937-4.46875c-.214844-.351563-.136719-.824219.1875-1.070313 1.648437-1.28125 2.53125-3.261719 2.53125-5.832031 0-4.496094-3.0625-7.050781-8.40625-7.050781h-8.679687c-.460938 0-.839844.375-.839844.839843v18.019532c0 .464844.378906.832031.839844.832031h4.847656c.453125 0 .832031-.367187.832031-.832031v-3.449219c0-.453125.375-.832031.832031-.832031h1.078125c.328125 0 .621094.191406.757813.488281l1.910156 4.144531c.140625.292969.429688.480469.757812.480469h5.34375c.648438 0 1.050782-.710937.71875-1.269531zm-8.398437-8.78125h-2.167969c-.457031 0-.832031-.378906-.832031-.84375v-3.019532c0-.460937.375-.828124.832031-.828124h2.167969c1.40625 0 2.222656.839843 2.222656 2.296874 0 1.519532-.816406 2.394532-2.222656 2.394532zm0 0"/><path d="m460.480469 172.800781v237.238281c-5.359375 7.101563-11.082031 13.921876-17.128907 20.421876-4.839843 5.1875-9.902343 10.1875-15.152343 14.980468-24.570313 22.339844-53.507813 39.980469-85.390625 51.457032-27.097656 9.78125-56.328125 15.101562-86.808594 15.101562-.898438 0-1.800781 0-2.699219-.019531-5.089843-.050781-10.140625-.25-15.160156-.601563-5.769531-.390625-11.480469-.980468-17.128906-1.75v-336.828125c0-13.550781 10.988281-24.53125 24.539062-24.53125h190.398438c13.550781 0 24.53125 10.980469 24.53125 24.53125zm0 0"/></g><path d="m460.480469 172.800781v237.238281c-5.359375 7.101563-11.082031 13.921876-17.128907 20.421876-4.839843 5.1875-9.902343 10.1875-15.152343 14.980468-24.570313 22.339844-53.507813 39.980469-85.390625 51.457032v-348.628907h93.140625c13.550781 0 24.53125 10.980469 24.53125 24.53125zm0 0" fill="#535e89"/><path d="m443.351562 182.390625v248.070313c-4.839843 5.1875-9.902343 10.1875-15.152343 14.980468-.769531.699219-1.539063 1.386719-2.320313 2.078125-2.867187 2.550781-5.808594 5.039063-8.800781 7.460938-.679687.558593-1.367187 1.109375-2.058594 1.648437-.75.601563-1.507812 1.199219-2.269531 1.78125-.761719.589844-1.519531 1.179688-2.289062 1.761719-.761719.578125-1.53125 1.15625-2.3125 1.726563-.769532.570312-1.546876 1.140624-2.328126 1.703124-.78125.570313-1.558593 1.128907-2.351562 1.679688-2.398438 1.699219-4.820312 3.347656-7.277344 4.957031-1.582031 1.03125-3.160156 2.042969-4.761718 3.042969-2.589844 1.617188-5.199219 3.1875-7.839844 4.707031-.640625.363281-1.269532.730469-1.910156 1.089844-.128907.070313-.257813.140625-.378907.222656-.699219.378907-1.390625.769531-2.089843 1.148438-1.179688.652343-2.359376 1.289062-3.539063 1.910156-.621094.332031-1.242187.660156-1.863281.980469-.820313.429687-1.648438.851562-2.46875 1.269531-.910156.460937-1.820313.910156-2.730469 1.351563-.871094.429687-1.738281.847656-2.621094 1.269531-1.847656.878906-3.699219 1.738281-5.566406 2.570312-.960937.429688-1.921875.859375-2.890625 1.269531-4.832031 2.089844-9.742188 4.039063-14.722656 5.828126-27.097656 9.78125-56.328125 15.101562-86.808594 15.101562-.898438 0-1.800781 0-2.699219-.019531-5.089843-.050781-10.140625-.25-15.160156-.601563v-328.988281c0-7.609375 6.167969-13.769531 13.769531-13.769531h177.667969c7.613281 0 13.773437 6.160156 13.773437 13.769531zm0 0" fill="#d0f6ff"/><path d="m443.351562 182.390625v248.070313c-4.839843 5.1875-9.902343 10.1875-15.152343 14.980468-.769531.699219-1.539063 1.386719-2.320313 2.078125-2.867187 2.550781-5.808594 5.039063-8.800781 7.460938-.679687.558593-1.367187 1.109375-2.058594 1.648437-.75.601563-1.507812 1.199219-2.269531 1.78125-.761719.589844-1.519531 1.179688-2.289062 1.761719-.761719.578125-1.53125 1.15625-2.3125 1.726563-.769532.570312-1.546876 1.140624-2.328126 1.703124-.78125.570313-1.558593 1.128907-2.351562 1.679688-2.398438 1.699219-4.820312 3.347656-7.277344 4.957031-1.582031 1.03125-3.160156 2.042969-4.761718 3.042969-2.589844 1.617188-5.199219 3.1875-7.839844 4.707031-.640625.363281-1.269532.730469-1.910156 1.089844-.128907.070313-.257813.140625-.378907.222656-.699219.378907-1.390625.769531-2.089843 1.148438-1.179688.652343-2.359376 1.289062-3.539063 1.910156-.621094.332031-1.242187.660156-1.863281.980469-.820313.429687-1.648438.851562-2.46875 1.269531-.910156.460937-1.820313.910156-2.730469 1.351563-.871094.429687-1.738281.847656-2.621094 1.269531-1.847656.878906-3.699219 1.738281-5.566406 2.570312-.960937.429688-1.921875.859375-2.890625 1.269531-4.832031 2.089844-9.742188 4.039063-14.722656 5.828126v-328.277344h86.769531c7.613281 0 13.773437 6.160156 13.773437 13.769531zm0 0" fill="#fff"/><path d="m428.199219 216.929688v228.511718c-.769531.699219-1.539063 1.386719-2.320313 2.078125-.71875.640625-1.4375 1.269531-2.167968 1.902344-.722657.628906-1.449219 1.257813-2.191407 1.878906-1.460937 1.238281-2.941406 2.46875-4.441406 3.679688-.679687.558593-1.367187 1.109375-2.058594 1.648437-.75.601563-1.507812 1.199219-2.269531 1.78125-.761719.589844-1.519531 1.179688-2.289062 1.761719-.761719.578125-1.53125 1.15625-2.3125 1.726563-.769532.570312-1.546876 1.140624-2.328126 1.703124-.78125.570313-1.558593 1.128907-2.351562 1.679688-2.398438 1.699219-4.820312 3.347656-7.277344 4.957031-1.582031 1.03125-3.160156 2.042969-4.761718 3.042969-1.160157.730469-2.328126 1.4375-3.5 2.140625-1.441407.878906-2.878907 1.726563-4.339844 2.566406-.640625.363281-1.269532.730469-1.910156 1.089844-.128907.070313-.257813.140625-.378907.222656-.699219.378907-1.390625.769531-2.089843 1.148438-1.179688.652343-2.359376 1.289062-3.539063 1.910156-.621094.332031-1.242187.660156-1.863281.980469-.820313.429687-1.648438.851562-2.46875 1.269531-.910156.460937-1.820313.910156-2.730469 1.351563-.871094.429687-1.738281.847656-2.621094 1.269531-.929687.441406-1.847656.871093-2.777343 1.300781-.929688.429688-1.851563.847656-2.789063 1.269531-.480469.21875-.960937.429688-1.441406.640625-.480469.21875-.960938.417969-1.449219.628906-1.210938.519532-2.421875 1.039063-3.640625 1.539063-1 .410156-2 .820313-3 1.21875-1.589844.640625-3.199219 1.261719-4.8125 1.863281-1.007813.386719-2.039063.769532-3.058594 1.128906-.070312.03125-.140625.050782-.210937.078126-27.097656 9.78125-56.328125 15.101562-86.808594 15.101562-.898438 0-1.800781 0-2.699219-.019531v-295.050781c0-3.980469 3.21875-7.199219 7.1875-7.199219h160.511719c3.96875 0 7.199219 3.21875 7.199219 7.199219zm0 0" fill="#323b5a"/><path d="m428.199219 216.929688v228.511718c-.769531.699219-1.539063 1.386719-2.320313 2.078125-.71875.640625-1.4375 1.269531-2.167968 1.902344-.722657.628906-1.449219 1.257813-2.191407 1.878906-1.460937 1.238281-2.941406 2.46875-4.441406 3.679688-.679687.558593-1.367187 1.109375-2.058594 1.648437-.75.601563-1.507812 1.199219-2.269531 1.78125-.761719.589844-1.519531 1.179688-2.289062 1.761719-.761719.578125-1.53125 1.15625-2.3125 1.726563-.769532.570312-1.546876 1.140624-2.328126 1.703124-.78125.570313-1.558593 1.128907-2.351562 1.679688-2.398438 1.699219-4.820312 3.347656-7.277344 4.957031-1.582031 1.03125-3.160156 2.042969-4.761718 3.042969-1.160157.730469-2.328126 1.4375-3.5 2.140625-1.441407.878906-2.878907 1.726563-4.339844 2.566406-.640625.363281-1.269532.730469-1.910156 1.089844-.128907.070313-.257813.140625-.378907.222656-.699219.378907-1.390625.769531-2.089843 1.148438-1.179688.652343-2.359376 1.289062-3.539063 1.910156-.621094.332031-1.242187.660156-1.863281.980469-.820313.429687-1.648438.851562-2.46875 1.269531-.910156.460937-1.820313.910156-2.730469 1.351563-.871094.429687-1.738281.847656-2.621094 1.269531-.929687.441406-1.847656.871093-2.777343 1.300781-.929688.429688-1.851563.847656-2.789063 1.269531-.480469.21875-.960937.429688-1.441406.640625-.480469.21875-.960938.417969-1.449219.628906-1.210938.519532-2.421875 1.039063-3.640625 1.539063-1 .410156-2 .820313-3 1.21875-1.589844.640625-3.199219 1.261719-4.8125 1.863281-1.007813.386719-2.039063.769532-3.058594 1.128906-.070312.03125-.140625.050782-.210937.078126v-287.167969h78.191406c3.96875 0 7.199219 3.21875 7.199219 7.199219zm0 0" fill="#535e89"/><path d="m297.148438 305.039062h91.332031v91.339844h-91.332031zm0 0" fill="#d0f6ff"/><path d="m342.808594 305.039062h45.671875v91.339844h-45.671875zm0 0" fill="#fff"/><path d="m282.148438 290.039062v121.339844h121.332031v-121.339844zm106.332031 106.339844h-91.332031v-91.339844h91.332031zm0 0" fill="#dd1265"/><path d="m403.480469 290.039062v121.339844h-60.671875v-15h45.671875v-91.339844h-45.671875v-15zm0 0" fill="#ff3445"/><path d="m325.574219 353.125h-17.242188v34.484375h34.484375v-17.242187h-17.242187zm0 0" fill="#323b5a"/><path d="m360.054688 318.644531h-17.238282v17.238281h-17.242187v17.242188h17.242187v17.242188h17.238282v17.242187h17.242187v-68.964844zm0 0" fill="#323b5a"/><path d="m308.332031 318.644531h17.242188v17.238281h-17.242188zm0 0" fill="#323b5a"/><path d="m365.621094 193.976562h-49.75c-3.292969 0-5.960938-2.667968-5.960938-5.960937s2.667969-5.960937 5.960938-5.960937h49.75c3.292968 0 5.960937 2.667968 5.960937 5.960937s-2.667969 5.960937-5.960937 5.960937zm0 0" fill="#323b5a"/><path d="m308.039062 252.5625c0-.601562.492188-.832031 1.242188-.832031 1.390625 0 3.667969.792969 5.570312 1.671875.738282.351562 1.617188.050781 1.976563-.691406l1.152344-2.417969c.347656-.722657.058593-1.609375-.660157-1.949219-2.140624-1.042969-4.839843-1.683594-7.46875-1.683594-5.210937 0-8.589843 2.523438-8.589843 6.53125 0 7.039063 10.386719 5.320313 10.386719 7.929688 0 .710937-.628907 1.03125-1.597657 1.03125-1.652343 0-4.289062-.921875-6.332031-2.179688-.730469-.460937-1.699219-.171875-2.078125.597656l-1.128906 2.292969c-.332031.679688-.101563 1.507813.546875 1.910157 2.5625 1.558593 5.902344 2.449218 8.929687 2.449218 4.53125 0 8.453125-1.980468 8.453125-6.441406 0-7.277344-10.402344-5.699219-10.402344-8.21875zm0 0" fill="#fff"/><path d="m335.671875 260.253906c-.511719-.542968-1.351563-.640625-1.941406-.191406-1.152344.898438-2.492188 1.429688-3.601563 1.429688-2.398437 0-4.148437-1.949219-4.148437-4.640626 0-2.660156 1.75-4.578124 4.148437-4.578124 1.152344 0 2.429688.578124 3.511719 1.546874.628906.5625 1.578125.5 2.121094-.136718l1.859375-2.203125c.519531-.617188.457031-1.558594-.171875-2.070313-2.050781-1.648437-4.828125-2.65625-7.410157-2.65625-6.300781 0-10.878906 4.289063-10.878906 10.1875 0 5.980469 4.46875 10.359375 10.628906 10.359375 2.621094 0 5.472657-1.128906 7.632813-2.957031.636719-.53125.667969-1.511719.097656-2.113281zm0 0" fill="#fff"/><path d="m360.5 264.992188-6.960938-17.128907c-.230468-.550781-.769531-.910156-1.367187-.910156h-4.84375c-.597656 0-1.128906.347656-1.359375.898437l-7.230469 17.121094c-.410156.96875.300781 2.050782 1.351563 2.050782h3.558594c.621093 0 1.179687-.390626 1.390624-.972657l.320313-.898437c.21875-.582032.769531-.96875 1.390625-.96875h5.460938c.617187 0 1.179687.398437 1.390624.976562l.296876.871094c.210937.589844.773437.992188 1.390624.992188h3.839844c1.050782 0 1.761719-1.0625 1.371094-2.03125zm-10.960938-5.558594c-.847656 0-1.480468-.691406-1.480468-1.472656 0-.167969.03125-.339844.089844-.507813.472656-1.300781 2.320312-1.292969 2.78125.019531.058593.160156.082031.320313.082031.480469 0 .777344-.632813 1.480469-1.472657 1.480469zm0 0" fill="#fff"/><path d="m380.5 246.953125h-3.058594c-.8125 0-1.472656.660156-1.472656 1.46875v4.5c0 1.410156-1.789062 2.011719-2.648438.898437l-4.839843-6.296874c-.28125-.363282-.710938-.570313-1.171875-.570313h-3.359375c-.808594 0-1.46875.660156-1.46875 1.46875v17.121094c0 .820312.660156 1.480469 1.46875 1.480469h3.101562c.808594 0 1.46875-.660157 1.46875-1.480469v-4.449219c0-1.402344 1.78125-2.011719 2.640625-.902344l4.820313 6.25c.28125.359375.710937.582032 1.167969.582032h3.351562c.820312 0 1.480469-.660157 1.480469-1.480469v-17.121094c0-.808594-.660157-1.46875-1.480469-1.46875zm0 0" fill="#fff"/></svg>