<svg height="512" viewBox="0 0 60 50" width="512" xmlns="http://www.w3.org/2000/svg"><g id="Page-1" fill="none" fill-rule="evenodd"><g id="030---Certificate" fill-rule="nonzero"><rect id="Rectangle-path" fill="#cad9fc" height="40" rx="2" width="58" x="1" y="1"/><rect id="Rectangle-path" fill="#e8edfc" height="40" rx="2" width="55" x="1" y="1"/><path id="Shape" d="m55 20.81v-10.91c-.0040703-.48611567-.3520508-.90117672-.83-.99-1.5460604-.32605334-2.7539467-1.53393963-3.08-3.08-.0888233-.47794919-.5038843-.82592967-.99-.83h-40.2c-.48611567.00407033-.90117672.35205081-.99.83-.32605334 1.54606037-1.53393963 2.75394666-3.08 3.08-.47794919.08882328-.82592967.50388433-.83.99v22.2c.00407033.4861157.35205081.9011767.83.99 1.54606037.3260533 2.75394666 1.5339396 3.08 3.08.08882328.4779492.50388433.8259297.99.83h22.35" fill="#fff"/><path id="Shape" d="m54.56 27c0 1.5 1.8 3.28 1.37 4.64-.44 1.4-2.94 1.74-3.77 2.91-.84 1.18-.4 3.72-1.55 4.58-.8194704.3792846-1.7524727.4329054-2.61.15v1.72h-12v-1.72c-.8575273.2829054-1.7905296.2292846-2.61-.15-1.15-.86-.71-3.4-1.55-4.58-.83-1.17-3.33-1.51-3.77-2.91-.43-1.36 1.37-3.14 1.37-4.64s-1.8-3.28-1.37-4.63c.44-1.41 2.94-1.75 3.77-2.92.84-1.18.4-3.72 1.55-4.58 1.14-.85 3.36.36 4.73-.1 1.32-.44 2.41-2.77 3.88-2.77s2.56 2.33 3.88 2.77c1.37.46 3.59-.75 4.73.1 1.15.86.71 3.4 1.55 4.58.83 1.17 3.33 1.51 3.77 2.92.43 1.35-1.37 3.13-1.37 4.63z" fill="#cad9fc"/><path id="Shape" d="m47 36v11.89c.0373762.3842203-.1507467.7554106-.4827092.9524464s-.7479103.1843907-1.0672908-.0324464l-1.45-1.07-2.45-1.8c-.3240032-.2501462-.7759968-.2501462-1.1 0l-.95.7-2.95 2.17c-.3193805.2168371-.7353283.2294822-1.0672908.0324464s-.5200854-.5682261-.4827092-.9524464v-11.89z" fill="#7facfa"/><path id="Shape" d="m44 36v11.74l-2.45-1.8c-.3240032-.2501462-.7759968-.2501462-1.1 0l-.95.7-.95-.7c-.3240032-.2501462-.7759968-.2501462-1.1 0l-2.45 1.8v-11.74z" fill="#a4c2f7"/><path id="Shape" d="m53.56 25c0 1.5 1.8 3.28 1.37 4.64-.44 1.4-2.94 1.74-3.77 2.91-.84 1.18-.4 3.72-1.55 4.58-.75.56-1.97.23-3.11.06-.53616-.1083997-1.0898432-.0947285-1.62.04-.1002382.0348806-.1972673.0783764-.29.13-1.19.64-2.23 2.64-3.59 2.64-.5726445-.0510019-1.106532-.3108271-1.5-.73-.8-.73-1.54-1.76-2.38-2.04-.9027126-.1425523-1.8250777-.098306-2.71.13-.6368892.1692268-1.3130096.1090486-1.91-.17-.0413694-.0098112-.0793536-.0305299-.11-.06-1.15-.86-.71-3.4-1.55-4.58-.83-1.17-3.33-1.51-3.77-2.91-.43-1.36 1.37-3.14 1.37-4.64s-1.8-3.28-1.37-4.64c.44-1.4 2.94-1.74 3.77-2.91.84-1.18.4-3.72 1.55-4.58.0306464-.0294701.0686306-.0501888.11-.06.5969904-.2790486 1.2731108-.3392268 1.91-.17.8849223.228306 1.8072874.2725523 2.71.13.84-.28 1.58-1.31 2.38-2.04.393468-.4191729.9273555-.6789981 1.5-.73 1.36 0 2.4 2 3.59 2.64.0927327.0516236.1897618.0951194.29.13.5301568.1347285 1.08384.1483997 1.62.04 1.14-.17 2.36-.5 3.11.06 1.15.86.71 3.4 1.55 4.58.83 1.17 3.33 1.51 3.77 2.91.43 1.36-1.37 3.14-1.37 4.64z" fill="#cad9fc"/><path id="Shape" d="m50.56 25c0 1.5 1.8 3.28 1.37 4.64-.44 1.4-2.94 1.74-3.77 2.91-.84 1.18-.4 3.72-1.55 4.58-.0306464.0294701-.0686306.0501888-.11.06-.5969904.2790486-1.2731108.3392268-1.91.17-.8849223-.228306-1.8072874-.2725523-2.71-.13-.84.28-1.58 1.31-2.38 2.04-.8-.73-1.54-1.76-2.38-2.04-.9027126-.1425523-1.8250777-.098306-2.71.13-.0927327-.0516236-.1897618-.0951194-.29-.13-.5301568-.1347285-1.08384-.1483997-1.62-.04-.0413694-.0098112-.0793536-.0305299-.11-.06-1.15-.86-.71-3.4-1.55-4.58-.83-1.17-3.33-1.51-3.77-2.91-.43-1.36 1.37-3.14 1.37-4.64s-1.8-3.28-1.37-4.64c.44-1.4 2.94-1.74 3.77-2.91.84-1.18.4-3.72 1.55-4.58.0306464-.0294701.0686306-.0501888.11-.06.53616.1083997 1.0898432.0947285 1.62-.04.1002382-.0348806.1972673-.0783764.29-.13.8849223.228306 1.8072874.2725523 2.71.13.84-.28 1.58-1.31 2.38-2.04.8.73 1.54 1.76 2.38 2.04.9027126.1425523 1.8250777.098306 2.71-.13.6368892-.1692268 1.3130096-.1090486 1.91.17.0413694.0098112.0793536.0305299.11.06 1.15.86.71 3.4 1.55 4.58.83 1.17 3.33 1.51 3.77 2.91.43 1.36-1.37 3.14-1.37 4.64z" fill="#e8edfc"/><circle id="Oval" cx="41" cy="25" fill="#cad9fc" r="9"/><path id="Shape" d="m49.57 22.25c-1.3824095-.8219303-2.9617058-1.2539041-4.57-1.25-2.8750219.0004751-5.5768575 1.3742759-7.2710361 3.6970996s-2.1768591 5.3151913-1.2989639 8.0529004c-3.4527591-2.0362665-5.1423689-6.1107929-4.1438235-9.9929101.9985453-3.8821172 4.444459-6.6357012 8.4512168-6.7532554 4.0067577-.1175542 7.60818 2.4292681 8.8326067 6.2461655z" fill="#e8edfc"/><path id="Shape" d="m3 41h3c-1.10322458-.0032402-1.9967598-.8967754-2-2v-36c.0032402-1.10322458.89677542-1.9967598 2-2h-3c-1.10322458.0032402-1.9967598.89677542-2 2v36c.0032402 1.1032246.89677542 1.9967598 2 2z" fill="#fff"/><path id="Shape" d="m2 3v13 23h-2v-23-13z" fill="#fff"/><g fill="#428dff"><path id="Shape" d="m1 8c.55162365-.00159279.99840721-.44837635 1-1v-4h-2v4c.0016474.55160093.44839907.9983526 1 1z"/><path id="Shape" d="m0 39h2v-24c0-.5522847-.44771525-1-1-1s-1 .4477153-1 1z"/><path id="Shape" d="m2 11c-.0039589-.2647108-.10750224-.5182135-.29-.71l-.15-.12c-.05575598-.037828-.11628399-.068092-.18-.09-.05666008-.0288933-.11733597-.0491186-.18-.06-.06612874-.0112482-.13295338-.0179306-.2-.02-.26476698.0036835-.51836621.1072663-.71.29-.37745227.398085-.37745227 1.021915 0 1.42.09566008.0903288.20765785.1616001.33.21.12022231.051241.24932274.07842.38.08.26469083-.0040569.51815919-.1075862.71-.29.18241381-.1918408.28594314-.4453092.29-.71z"/><path id="Shape" d="m57 42h-9c-.5522847 0-1-.4477153-1-1s.4477153-1 1-1h9c.5520791-.0004962.9995038-.4479209 1-1v-36c-.0004962-.55207909-.4479209-.9995038-1-1h-54c-.55207909.0004962-.9995038.44792091-1 1 0 .55228475-.44771525 1-1 1s-1-.44771525-1-1c.00181871-1.65610033 1.34389967-2.99818129 3-3h54c1.6561003.00181871 2.9981813 1.34389967 3 3v36c-.0018187 1.6561003-1.3438997 2.9981813-3 3z"/><path id="Shape" d="m35 42h-32c-1.65610033-.0018187-2.99818129-1.3438997-3-3 0-.5522847.44771525-1 1-1s1 .4477153 1 1c.0004962.5520791.44792091.9995038 1 1h32c.5522847 0 1 .4477153 1 1s-.4477153 1-1 1z"/><path id="Shape" d="m32.25 38h-22.35c-.9616234-.0004133-1.7878512-.6827852-1.97-1.627-.24050188-1.1584134-1.1456075-2.0635976-2.304-2.3042-.94367409-.1819775-1.62565786-1.0077399-1.626-1.9688v-22.2c.00044291-.96134749.68294388-1.78718625 1.627-1.9687 1.15841774-.24078302 2.06341975-1.14617788 2.3037-2.3047.18226677-.94379726 1.00806437-1.62588855 1.9693-1.6266h40.2c.9616234.00041333 1.7878512.68278522 1.97 1.627.2406061 1.1586113 1.1460365 2.06384532 2.3047 2.3042.9433958.18227169 1.6250227 1.00795738 1.6253 1.9688v10.91c0 .5522847-.4477153 1-1 1s-1-.4477153-1-1v-10.91c-1.9518265-.39732727-3.4807019-1.91684864-3.89-3.8662l-40.21-.0338c-.39768385 1.9514782-1.9171149 3.47994834-3.8662 3.8892l-.0338 22.2108c1.9518265.3973273 3.48070191 1.9168486 3.89 3.8662l22.36.0338c.5522847 0 1 .4477153 1 1s-.4477153 1-1 1z"/><path id="Shape" d="m41 41c-1.1802772-.1580579-2.2435165-.794808-2.94-1.7607-.3496818-.428057-.7754662-.7877989-1.2559-1.0611-.5663695-.0796861-1.142829-.0485078-1.6973.0918-1.1036868.3468269-2.3014067.2248312-3.3125-.3374-.8360206-.8216243-1.3132171-1.9405108-1.3275-3.1126-.0385116-.5849921-.1869356-1.1574846-.4375-1.6875-.4050803-.3943247-.8821648-.7071302-1.4053-.9214-1.1093334-.3874991-2.0148568-1.2070758-2.5107-2.2724-.1990042-1.1331367.0533599-2.2991585.7031-3.2486.3158686-.517706.5287679-1.0915495.627-1.69-.0982808-.5984376-.3111768-1.1722719-.627-1.69-.6493315-.9494291-.9016652-2.1151309-.7031-3.2481.4956611-1.0658293 1.4017287-1.8855722 2.5117-2.2724.5230238-.2144814 1.0000701-.5272619 1.4053-.9214.2505481-.5303745.3989681-1.1031909.4375-1.6885.0142545-1.1714357.4909091-2.2897642 1.3261-3.1113 1.0111294-.5632097 2.2094978-.6854155 3.3135-.3379.5542861.1415189 1.1309836.1727101 1.6973.0918.4805608-.2735806.9063324-.6337472 1.2558-1.0623.6963218-.96570689 1.7594306-1.602234 2.9395-1.76 1.1802772.15805788 2.2435165.79480801 2.94 1.7607.3496818.428057.7754662.7877989 1.2559 1.0611.5663137.0809702 1.143023.0497784 1.6973-.0918 1.1036563-.3471267 2.3014971-.2251187 3.3125.3374.8360206.8216243 1.3132171 1.9405108 1.3275 3.1126.0385116.5849921.1869356 1.1574846.4375 1.6875.4050803.3943247.8821648.7071302 1.4053.9214 1.1093334.3874991 2.0148568 1.2070758 2.5107 2.2724.1990042 1.1331367-.0533599 2.2991585-.7031 3.2486-.3158686.517706-.5287679 1.0915495-.627 1.69.0982808.5984376.3111768 1.1722719.627 1.69.6493315.9494291.9016652 2.1151309.7031 3.2481-.4956611 1.0658293-1.4017287 1.8855722-2.5117 2.2724-.5230238.2144814-1.0000701.5272619-1.4053.9214-.2505481.5303745-.3989681 1.1031909-.4375 1.6885-.0142545 1.1714357-.4909091 2.2897642-1.3261 3.1113-1.0111294.5632097-2.2094978.6854155-3.3135.3379-.554464-.1403533-1.1309325-.1715321-1.6973-.0918-.4803818.2736312-.9059805.6337949-1.2553 1.0623-.6964371.9658239-1.7597494 1.6023646-2.94 1.76zm-4.6367-4.8784c.363985-.0052636.7264172.0485001 1.0732.1592.8041972.3517921 1.5124496.8910652 2.0655 1.5727.4912.5108 1.1015 1.1465 1.498 1.1465s1.0059-.6353 1.4971-1.146c.5529947-.6817735 1.2612082-1.2212145 2.0654-1.5732.8740978-.208765 1.7856961-.2032416 2.6572.0161.668.1113 1.4991.248 1.791.0322.3077-.2295.4385-1.1025.543-1.8037.0606658-.9003349.3301481-1.7741752.7871-2.5523.5745257-.6763068 1.302476-1.2053916 2.1231-1.5431.6543-.334 1.3945-.7129 1.5166-1.0972.1133-.3559-.2735-1.1265-.584-1.7451-.4765864-.7858834-.7641088-1.6717289-.8399-2.5877.0757196-.9159058.3632855-1.8016773.84-2.5874.31-.6191.6973-1.3892.584-1.7451-.1221-.3848-.8623-.7637-1.5157-1.0977-.8208376-.337925-1.5490547-.8670823-2.124-1.5434-.4562042-.777552-.7253263-1.6505469-.7861-2.55-.1045-.7017-.2354-1.5752-.544-1.8052-.289-.2163-1.122-.0781-1.791.0322-.8710121.2205441-1.7825785.2260694-2.6562.0161-.8041972-.3517921-1.5124496-.8910652-2.0655-1.5727-.4913-.5111-1.1016-1.1468-1.4981-1.1468s-1.0059.6353-1.4971 1.146c-.5529947.6817735-1.2612082 1.2212145-2.0654 1.5732-.8739887.2097143-1.7858167.2041895-2.6572-.0161-.669-.1113-1.5-.249-1.791-.0322-.3077.23-.4385 1.1025-.543 1.8037-.0606658.9003349-.3301481 1.7741752-.7871 2.5523-.5745257.6763068-1.302476 1.2053916-2.1231 1.5431-.6543.334-1.3945.7129-1.5166 1.0972-.1133.3559.2735 1.1265.584 1.7451.4765864.7858834.7641088 1.6717289.8399 2.5877-.0757196.9159058-.3632855 1.8016773-.84 2.5874-.3105.6191-.6973 1.3892-.584 1.7451.1221.3848.8623.7637 1.5157 1.0977.8208376.337925 1.5490547.8670823 2.124 1.5434.4562042.777552.7253263 1.6505469.7861 2.55.1045.7017.2354 1.5752.544 1.8052.288.2153 1.1211.0771 1.791-.0322.5221031-.1010233 1.0515376-.1595484 1.5831-.175z"/><path id="Shape" d="m41 35c-5.5228475 0-10-4.4771525-10-10s4.4771525-10 10-10 10 4.4771525 10 10c-.0062823 5.5202432-4.4797568 9.9937177-10 10zm0-18c-4.418278 0-8 3.581722-8 8s3.581722 8 8 8 8-3.581722 8-8c-.0050699-4.4161763-3.5838237-7.9949301-8-8z"/><path id="Shape" d="m35.998 49.998c-1.1034192-.0001104-1.9978896-.8945808-1.998-1.998v-10.73c0-.5522847.4477153-1 1-1s1 .4477153 1 1v10.73l3.8975-2.5928c.67207-.4588273 1.5580222-.4535704 2.2246.0132l3.8808 2.5767-.0029-10.7271c0-.5522847.4477153-1 1-1s1 .4477153 1 1v10.73c.0002626.7365543-.4049726 1.4134427-1.0543198 1.7610929s-1.4373483.3096015-2.0501802-.0989929l-3.8984-2.5889-3.8946 2.59c-.3270108.2182554-.7113442.3347559-1.1045.3348z"/><path id="Shape" d="m23 22h-10c-.5522847 0-1-.4477153-1-1s.4477153-1 1-1h10c.5522847 0 1 .4477153 1 1s-.4477153 1-1 1z"/><path id="Shape" d="m25 18h-12c-.5522847 0-1-.4477153-1-1s.4477153-1 1-1h12c.5522847 0 1 .4477153 1 1s-.4477153 1-1 1z"/><path id="Shape" d="m24 26h-6c-.5522847 0-1-.4477153-1-1s.4477153-1 1-1h6c.5522847 0 1 .4477153 1 1s-.4477153 1-1 1z"/></g></g></g></svg>